<svg id="Camada_1" data-name="Camada 1" xmlns="http://www.w3.org/2000/svg" viewBox="0 0 720 265.54"><defs><style>.cls-1{fill:#fff;}</style></defs><title>bleep-logo3</title><path class="cls-1" d="M46.36,197.67,75.79,26H118.1L107.25,90.36H171l-3.53,21.46h21.28l-10.48,64.39H156.89l-3.53,21.46Zm89.16-21.46,10.67-64.39H103.63L92.78,176.21Z"/><path class="cls-1" d="M196.16,197.67,223.88,26h42.31L239,197.67Z"/><path class="cls-1" d="M281.77,197.67l3.34-21.46H263.74l10.11-64.39h21.28l3.34-21.46h85l-3.22,21.46H316.41l-3.31,21.47H377l-3.22,21.46h-64l-3.31,21.46H392l-3.19,21.46ZM377,133.29l3.21-21.47h21.28l-3.19,21.47Z"/><path class="cls-1" d="M431.57,197.67l3.13-21.46H413.33l9.47-64.39h21.28l3.13-21.46h85l-3,21.46H465.36l-3.1,21.47h63.93l-3,21.46h-64l-3.09,21.46h85.48l-3,21.46Zm94.62-64.38,3-21.47h21.28l-3,21.47Z"/><path class="cls-1" d="M554.09,240.6l20.6-150.24H680.93l-2.79,21.46h21.27l-8.27,64.39H669.77L667,197.67H602.77L597,240.6Zm94.31-64.39,8.46-64.39H614.3l-8.64,64.39Z"/></svg>